Coordinates
version=1
nRows=7
nColumns=40
inDegrees=yes

Units are S.I. units (second, meters, Newtons, ...)
Angles are in degrees.

endheader
time	pelvis_tilt	pelvis_list	pelvis_rotation	pelvis_tx	pelvis_ty	pelvis_tz	hip_flexion_r	hip_adduction_r	hip_rotation_r	knee_angle_r	knee_angle_r_beta	ankle_angle_r	subtalar_angle_r	mtp_angle_r	hip_flexion_l	hip_adduction_l	hip_rotation_l	knee_angle_l	knee_angle_l_beta	ankle_angle_l	subtalar_angle_l	mtp_angle_l	lumbar_extension	lumbar_bending	lumbar_rotation	arm_flex_r	arm_add_r	arm_rot_r	elbow_flex_r	pro_sup_r	wrist_flex_r	wrist_dev_r	arm_flex_l	arm_add_l	arm_rot_l	elbow_flex_l	pro_sup_l	wrist_flex_l	wrist_dev_l
     38.35000000	     -3.93422661	     -4.12286951	     -2.48183325	      0.94581916	      0.93649551	      0.42328829	     32.38655751	     -4.51458391	     -5.27774556	     52.07249876	     52.07249876	      4.56949487	    -14.65551200	      1.63499490	      9.47787767	     -3.31763735	     -8.66031863	     16.48774183	     16.48774183	     12.85040231	     -9.75784090	     -2.06790563	     -9.17011533	      6.37634672	      2.27540962	      6.97265111	    -11.36104872	     -4.09443487	     31.12850038	     46.61141834	      0.00000000	      0.00000000	     19.74604993	    -13.26686761	     -1.12683432	     44.85760384	     46.79969599	      0.00000000	      0.00000000
     38.36200000	     -3.95026387	     -4.23655688	     -2.72405392	      0.94495511	      0.93633003	      0.42374965	     32.63625677	     -4.25880635	     -5.54343834	     48.97366390	     48.97366390	      4.23081093	    -13.67955151	      1.93407166	      8.83915495	     -3.42884846	     -8.79625377	     16.17979643	     16.17979643	     13.16010531	     -9.72152954	     -2.16129477	     -9.27823366	      6.63909553	      2.36514238	      5.17463807	    -11.69819025	     -4.22181854	     29.91139920	     46.65242984	      0.00000000	      0.00000000	     20.91131673	    -13.64969751	     -1.45291952	     45.84474689	     46.84799551	      0.00000000	      0.00000000
     38.37400000	     -3.97436118	     -4.28521792	     -2.99779390	      0.94416090	      0.93605063	      0.42434041	     32.77812907	     -4.03617188	     -5.84647798	     45.67902295	     45.67902295	      3.83786556	    -12.53936947	      2.13246036	      8.17555991	     -3.47837083	     -9.00741929	     15.82139302	     15.82139302	     13.44244971	     -9.61666182	     -2.30928368	     -9.38634377	      6.78741947	      2.58721653	      3.42262826	    -12.03469221	     -4.41206984	     28.41976255	     46.71176334	      0.00000000	      0.00000000	     22.05179139	    -13.97657380	     -1.83355686	     47.06674304	     46.90307839	      0.00000000	      0.00000000
     38.38600000	     -4.02017076	     -4.25466987	     -3.24924859	      0.94344290	      0.93565380	      0.42488703	     32.81003983	     -3.88170500	     -6.20805323	     42.20847535	     42.20847535	      3.41249304	    -11.25923351	      2.25949597	      7.53632572	     -3.43740790	     -9.28246168	     15.46431164	     15.46431164	     13.69398067	     -9.47478679	     -2.51134805	     -9.44167919	      6.90600318	      2.75189468	      1.79563095	    -12.32913951	     -4.67174581	     26.91277992	     46.78042202	      0.00000000	      0.00000000	     23.05583163	    -14.34900300	     -2.26628300	     48.38105819	     46.96235416	      0.00000000	      0.00000000
     38.39800000	     -4.01323572	     -4.15170459	     -3.55255873	      0.94297205	      0.93516777	      0.42567983	     32.64449413	     -3.75433520	     -6.61803565	     38.61042985	     38.61042985	      2.97930776	     -9.68368344	      1.77410786	      6.74621131	     -3.33397678	     -9.67741520	     14.96970050	     14.96970050	     13.91693257	     -9.14871178	     -2.93534472	     -9.56611040	      6.80767352	      2.98929027	      0.40633696	    -12.51608001	     -5.34586791	     24.79884029	     46.91430715	      0.00000000	      0.00000000	     23.83296098	    -14.60210603	     -3.02462101	     50.53932576	     47.05325568	      0.00000000	      0.00000000
     38.41000000	     -4.15775590	     -4.05929079	     -3.76651709	      0.94256146	      0.93444082	      0.42645638	     32.39840414	     -3.57286556	     -7.16369444	     34.67960151	     34.67960151	      1.64627796	     -8.50237646	     -0.45542478	      6.12764877	     -3.23049199	     -9.96801465	     14.44593991	     14.44593991	     13.86826888	     -8.98845748	     -3.85338552	     -9.48345933	      6.78310558	      2.11640513	      0.25604473	    -12.24677506	     -8.68175406	     21.55749219	     47.35947477	      0.00000000	      0.00000000	     23.30561776	    -15.30266826	     -5.12787340	     53.89844515	     47.23097132	      0.00000000	      0.00000000
     38.42200000	     -4.24400698	     -3.99958298	     -4.00981920	      0.94231276	      0.93371260	      0.42742175	     32.04689423	     -3.29540062	     -7.70137751	     30.97155855	     30.97155855	      1.35790066	     -6.84921896	      0.15306576	      5.49659788	     -3.17116721	    -10.20897671	     14.07620981	     14.07620981	     14.14882562	     -8.83183078	     -4.00442717	     -9.41317761	      6.82095645	      2.17062773	     -1.40215684	    -12.59908493	     -8.94228691	     20.84989803	     47.40038731	      0.00000000	      0.00000000	     24.16066041	    -15.74549100	     -5.42306482	     54.76006290	     47.27256840	      0.00000000	      0.00000000
